<?xml version="1.0" encoding="utf-8"?>
<!-- Generator: Adobe Illustrator 19.1.0, SVG Export Plug-In . SVG Version: 6.00 Build 0)  -->
<svg version="1.1" id="Layer_1" xmlns="http://www.w3.org/2000/svg" xmlns:xlink="http://www.w3.org/1999/xlink" x="0px" y="0px"
	 viewBox="0 0 100 22" style="enable-background:new 0 0 100 22;" xml:space="preserve">
<style type="text/css">
	.st0{fill:#0033CC;}
</style>
<g>
	<g>
		<polygon points="25.3,4.6 29,4.6 29,13.9 33.9,13.9 33.9,17.1 25.3,17.1 		"/>
		<rect x="35.4" y="4.6" width="3.3" height="12.5"/>
		<path d="M45.8,17.4c-0.8,0-1.6-0.1-2.3-0.3s-1.3-0.4-1.8-0.8c-0.5-0.4-0.9-0.8-1.2-1.3c-0.3-0.5-0.4-0.8-0.5-1.5h3.7
			c0.1,0.5,0.3,0.5,0.6,0.8c0.4,0.2,0.9,0.4,1.5,0.4c0.2,0,0.4,0,0.5-0.1c0.2,0,0.4-0.1,0.5-0.2c0.2-0.1,0.3-0.2,0.4-0.3
			c0.1-0.1,0.1-0.3,0.1-0.5c0-0.2-0.1-0.3-0.2-0.5c-0.1-0.1-0.3-0.2-0.5-0.3c-0.2-0.1-0.4-0.2-0.7-0.3c-0.3-0.1-0.6-0.2-1-0.3
			c-0.5-0.1-1.1-0.3-1.6-0.5c-0.5-0.2-1-0.4-1.5-0.7c-0.4-0.3-0.8-0.7-1.1-1.1c-0.3-0.4-0.4-1-0.4-1.7c0-0.7,0.1-1.3,0.4-1.8
			C41.1,6,41.5,5.6,42,5.2c0.5-0.3,1-0.5,1.6-0.7c0.6-0.1,1.3-0.2,2-0.2c0.6,0,1.3,0.1,1.9,0.2C48,4.7,48.6,4.9,49,5.2
			c0.5,0.3,0.8,0.7,1.1,1.2c0.3,0.5,0.4,0.7,0.4,1.4H47c0,0-0.1-0.2-0.5-0.5C46.3,7.1,45.9,7,45.4,7c-0.4,0-0.7,0.1-1,0.2
			C44.2,7.4,44,7.6,44,7.9c0,0.2,0.1,0.3,0.2,0.5c0.1,0.1,0.3,0.2,0.6,0.3c0.2,0.1,0.6,0.2,0.9,0.2C46.1,9,46.5,9.1,47,9.2
			c0.5,0.1,1,0.3,1.5,0.5c0.5,0.2,0.9,0.4,1.3,0.7c0.4,0.3,0.7,0.7,0.9,1.1c0.2,0.4,0.4,1,0.4,1.7c0,0.7-0.1,1.3-0.4,1.8
			c-0.3,0.5-0.7,1-1.2,1.3c-0.5,0.4-1.1,0.6-1.7,0.8C47.2,17.3,46.5,17.4,45.8,17.4z"/>
		<path d="M84,17.4c-0.8,0-1.6-0.1-2.3-0.3c-0.7-0.2-1.3-0.4-1.8-0.8C79.4,16,79,15.5,78.7,15c-0.3-0.5-0.4-0.8-0.5-1.5H82
			c0.1,0.5,0.3,0.5,0.6,0.8c0.4,0.2,0.9,0.4,1.5,0.4c0.2,0,0.4,0,0.5-0.1s0.4-0.1,0.5-0.2c0.2-0.1,0.3-0.2,0.4-0.3
			c0.1-0.1,0.1-0.3,0.1-0.5c0-0.2-0.1-0.3-0.2-0.5c-0.1-0.1-0.3-0.2-0.5-0.3c-0.2-0.1-0.4-0.2-0.7-0.3c-0.3-0.1-0.6-0.2-1-0.3
			c-0.5-0.1-1.1-0.3-1.6-0.5c-0.5-0.2-1-0.4-1.5-0.7c-0.4-0.3-0.8-0.7-1.1-1.1c-0.3-0.4-0.4-1-0.4-1.7c0-0.7,0.1-1.3,0.4-1.8
			c0.3-0.5,0.6-0.9,1.1-1.2c0.5-0.3,1-0.5,1.6-0.7c0.6-0.1,1.3-0.2,2-0.2c0.6,0,1.3,0.1,1.9,0.2c0.6,0.1,1.1,0.4,1.6,0.7
			c0.5,0.3,0.8,0.7,1.1,1.2c0.3,0.5,0.4,0.7,0.4,1.4h-3.6c0,0-0.1-0.2-0.5-0.5C84.5,7.1,84.1,7,83.6,7c-0.4,0-0.7,0.1-1,0.2
			c-0.2,0.2-0.4,0.4-0.4,0.6c0,0.2,0.1,0.3,0.2,0.5c0.1,0.1,0.3,0.2,0.6,0.3c0.2,0.1,0.6,0.2,0.9,0.2c0.4,0.1,0.8,0.2,1.2,0.3
			c0.5,0.1,1,0.3,1.5,0.5c0.5,0.2,0.9,0.4,1.3,0.7c0.4,0.3,0.7,0.7,0.9,1.1c0.2,0.4,0.4,1,0.4,1.7c0,0.7-0.1,1.3-0.4,1.8
			c-0.3,0.5-0.7,1-1.2,1.3c-0.5,0.4-1.1,0.6-1.7,0.8C85.4,17.3,84.8,17.4,84,17.4z"/>
		<polygon points="51.8,4.6 61.8,4.6 61.8,7.7 58.6,7.7 58.6,17.1 54.9,17.1 54.9,7.7 51.8,7.7 		"/>
		<polygon points="63.6,4.6 67.2,4.6 67.2,13.9 72.2,13.9 72.2,17.1 63.6,17.1 		"/>
		<rect x="73.7" y="4.6" width="3.3" height="12.5"/>
		<polygon points="90,4.6 100.1,4.6 100.1,7.7 96.9,7.7 96.9,17.1 93.2,17.1 93.2,7.7 90,7.7 		"/>
	</g>
	<g>
		<g>
			<g>
				<path class="st0" d="M0,6.9h4.2v11.4H10V22H0V6.9z"/>
			</g>
			<g>
				<path class="st0" d="M18.9,15.1h-4.2V3.7H8.9V0h10V15.1z"/>
			</g>
		</g>
		<rect x="6" y="6.9" class="st0" width="6.8" height="1.6"/>
		<rect x="6" y="10.2" class="st0" width="6.8" height="1.6"/>
		<rect x="6" y="13.5" class="st0" width="6.8" height="1.6"/>
	</g>
</g>
</svg>
